<svg xmlns="http://www.w3.org/2000/svg" width="128" height="115" viewBox="0 0 128 115"><path d="M10.36 114.44c2.008-1.44 3.173-2.532 6.395-5.99 2.524-2.71 3.195-3.377 6.5-6.466 2.99-2.797 3.627-3.3 5.603-4.44 3.292-1.9 4.642-4.077 4.642-7.49V88.9h-.575c-1.19-.01-2.218-.426-3.153-1.29-.75-.694-1.167-1.288-2.672-3.808-2.114-3.54-3.76-5.95-5.733-8.393-1.293-1.603-1.962-2.677-2.454-3.94-.657-1.69-.845-2.74-.845-4.718 0-1.466.038-1.885.277-3.05.364-1.777.452-3.754.214-4.824-.297-1.328-.787-2.194-2.118-3.732-1.462-1.69-2.148-3.55-2.156-5.84-.006-1.93.31-8.636.468-9.904.7-5.653 3.08-10.497 7.56-15.4 2.612-2.856 6.083-5.893 11.386-9.96l4.5-3.453c4.524-3.47 6.497-4.64 10.9-6.468 2.32-.962 3.363-1.215 4.265-1.034.877.176 1.42.49 2.16 1.25l.678.69.523-.158c1.358-.412 4.732-.54 6.024-.228 1.556.375 2.948 1.357 3.9 2.75.607.888.87 1.015 1.493.714.34-.165.58-.405.99-.986.697-.997 1.34-1.623 2.047-1.995 1.418-.748 2.777-.69 5.357.225 1.74.617 2.494.752 4.184.752 1.943 0 3.592-.31 6.022-1.128 1.215-.338 1.392-1.403 1.91-2.147.31-.44.915-.653 2.012-.704 1.745-.08 2.623.368 3.257 1.658l.33.67-.047 1.352c-.098 2.856-.062 3.71.18 4.173.495.954 1.44 1.02 4.582.323 1.893-.42 2.342-.458 2.89-.25.535.205.98.75 1.695 2.082.565 1.052.53 1.17-.337 1.175-.462.018-.813-.033-1.5.24-.644.334-1.054.974-1.894 2.96-.22.52-.46 1.212-.53 1.536-.124.57-.12.596.102.776.192.155.407.187 1.294.188 1.84.003 3.043.386 3.37 1.075.302.635.042 1.308-1.07 2.767-1.216 1.595-1.42 2.348-.846 3.1.268.353.556.556 2.504 1.772.92.574 2.506 2.1 3.152 3.035.903 1.307 1.31 2.322 1.95 4.858.42 1.658.948 1.692 1.697.11.477-1.006.676-.825.865.784.183 1.556.156 4.17-.053 5.145-.363 1.694-1 2.84-2.44 4.382-1.046 1.123-1.345 1.532-1.85 2.536-1.174 2.337-1.1 4.874.222 7.517.21.42.712 1.28 1.114 1.912 1.3 2.035 1.8 3.398 1.8 4.904 0 1.554-.472 2.77-1.707 4.39-.99 1.3-1.19 1.76-1.192 2.74a7.124 7.124 0 0 1-1.44 4.24c-.906 1.194-2.236 2.248-4.63 3.666-2.278 1.35-3.024 2.32-4.525 5.882-.538 1.278-.686 1.534-1.135 1.972-.284.276-.544.47-.58.43-.033-.04-.118-.347-.187-.683l-.124-.61.917-2.94c.506-1.615 1.234-3.784 1.62-4.82.825-2.223 1.13-3.368 1.29-4.836.23-2.11-.077-6.81-.525-8.006-.262-.7-.792-1.294-1.268-1.42-.2-.054-.926-.17-1.614-.262-2.152-.284-3.257-.755-4.143-1.767l-.436-.5-.384.132c-.235.08-.874.133-1.636.136-1.11.004-1.303-.022-1.72-.227-.837-.412-1.056-1.28-.74-2.934.173-.9.392-1.47.832-2.168.965-1.528 2.673-2.732 4.8-3.383.79-.243 1.036-.27 2.478-.276 1.5-.007 1.628.007 2.048.23l.447.24-.397.347c-.22.192-.983.742-1.698 1.222-1.823 1.225-2.325 1.79-2.05 2.303.143.267.418.395 2.05.956 1.166.4 1.552.487 2.307.522.776.037.967.013 1.317-.166 1.173-.6 1.295-1.663.686-5.964-1.116-7.87-1.75-10.724-3.208-14.45-1.04-2.653-1.892-3.91-3.034-4.47-.527-.26-.654-.28-1.768-.276-.96.002-1.5.066-2.7.32-2.62.558-4.504.662-6.716.372-3.123-.41-5.08-1.04-11.784-3.794-3.952-1.623-6.712-2.456-9.29-2.802-1.735-.234-4.45-.17-5.575.132-2.018.54-3.147 1.67-3.52 3.518-.45 2.235-.642 6.303-.375 7.95.24 1.483.87 3.123 1.62 4.214.157.228.625.812 1.04 1.297.417.486.776.974.8 1.086.022.11.06.72.082 1.352.028.77.097 1.275.207 1.528.27.617.817 1.14 1.443 1.383.53.204.805.224 4.274.297 3.83.08 5.724.193 7.553.448 5.272.735 9.592 3.277 11.192 6.587.502 1.04.655 1.725.85 3.808.284 3.054.543 4.246 1.21 5.572.53 1.053.427 1.477-.36 1.477-.437 0-.634-.25-1.5-1.913-.848-1.628-1.465-2.36-2.164-2.566-.262-.077-1.126-.122-2.377-.122-3.99 0-7.48-.63-10.058-1.82-1.407-.647-1.696-.598-2.82.476-.957.914-1.605 1.258-2.49 1.32-1.177.086-2.224-.358-3.942-1.67-.836-.64-1.61-1.05-3.127-1.657-1.246-.498-1.75-.84-2.086-1.41-.262-.448-.284-.57-.337-1.943-.046-1.163-.094-1.52-.234-1.734-.287-.44-.575-.517-1.398-.378-1.675.283-2.51.756-2.93 1.66-.434.932-.26 2.24.328 2.464.37.14.617.064 1.356-.414 1.113-.72 1.532-.446 1.677 1.097.08.875.07.974-.205 1.808-.582 1.766-.724 3.338-.446 4.93.346 1.99 1.068 3.64 3.136 7.172.725 1.238 1.635 2.886 2.023 3.663.745 1.494.844 1.625 3.868 5.073 1.735 1.977 2.222 2.9 2.222 4.202 0 .806-.22 1.58-.635 2.24l-.256.404.195.406c.314.65.484 1.57.643 3.477.216 2.58.464 3.352 1.448 4.495.988 1.148 1.27 2.066 1.1 3.59-.27 2.405.537 4.486 2.387 6.162 1.318 1.196 4.105 2.768 6.767 3.82 2.994 1.182 5.707 1.808 9.118 2.104 1.684.146 1.97.253 2.113.79.117.435-.02.796-.385 1.01-.164.098-1.096.444-2.072.77l-1.773.59H51.828l-.23-.624a7.953 7.953 0 0 0-.624-1.254c-.543-.86-.59-1.142-.354-2.09.3-1.194.293-2.68-.015-3.626-.498-1.526-1.673-2.866-3.654-4.164-1.77-1.16-2.383-1.968-2.382-3.14 0-.693.274-1.25.982-1.996.64-.675.93-1.233 1.348-2.605.602-1.964 1.238-2.797 2.446-3.2.885-.293 1.094-.543 1.036-1.237-.025-.3-.12-.658-.21-.797-.09-.138-.627-.647-1.192-1.13-1.174-1.006-1.882-1.705-3.757-3.71-1.163-1.243-1.42-1.465-2.062-1.782l-.733-.363-1.488.116c-1.688.13-4.136.44-4.705.596-.854.234-1.442.838-1.833 1.884-.194.514-.63 2.727-.553 2.803.02.017.385.12.814.228.878.22 1.24.484 1.24.906 0 .154-.134.618-.298 1.03-1.037 2.61-1.27 5.9-.664 9.355.14.797 1 4.43 1.908 8.073a972.78 972.78 0 0 1 1.654 6.675c0 .028-6.507.05-14.46.05H9.58l.78-.56zm20.534-36.887c.44-.228.513-.584.294-1.457-.246-.98-.947-2.408-2.06-4.196-1.506-2.425-2.063-3.717-2.19-5.087-.07-.762-.076-.767-.688-.72-.772.06-1.676.97-2.066 2.08-.152.432-.194.758-.167 1.296.032.633.1.843.575 1.784 1.295 2.56 2.6 4.22 4.206 5.35.324.23 1.715 1.08 1.782 1.09.016 0 .158-.06.314-.14zm29.02-20.693c.35-.13 1.224-.355 1.942-.498 2.055-.406 4.35-1.04 4.767-1.316.812-.537.514-1.43-.65-1.946-.655-.29-1.687-.34-4.423-.215-2.937.134-3.633.333-4.223 1.207-.703 1.045.363 3.005 1.636 3.007.172 0 .6-.108.95-.24zM29.59 48.604a2.83 2.83 0 0 0 .693-.552c.594-.676.643-.905.672-3.102.03-2.348-.047-2.677-.72-3.003-.52-.254-1.557-.262-2.052-.015-.537.267-1.077.844-1.374 1.468-.24.505-.26.648-.246 1.75.013 1.174.023 1.222.437 2.2.446 1.05.62 1.317.95 1.46.295.13 1.21.015 1.642-.206zM94 17.092c1.654-.88 3.08-2.954 2.855-4.15-.085-.453-.665-1.097-1.124-1.248-.51-.17-1.145-.05-1.93.363-.905.476-1.396.91-1.74 1.544-.627 1.15-.374 3.09.47 3.604.446.272.8.245 1.47-.112zm-15.328-3.217c.228-.124.763-.437 1.19-.697a9.444 9.444 0 0 1 5.327-1.344c.805.044 1.102.023 1.323-.09.55-.284.462-1.034-.155-1.33-.238-.115-.577-.117-2.09-.012-1.053.073-2.33.098-3.062.06-1.882-.1-2.664.11-4.74 1.278-1.156.648-1.355.866-1.394 1.53-.02.333.016.39.378.597.356.204.533.23 1.604.23 1.06.002 1.253-.024 1.618-.222zm9.065 100.95c.086-.3.35-1.74.47-2.575.12-.835.157-2.554.102-4.85-.04-1.692.13-2.407 1.274-5.313.73-1.853 3.468-9.445 4.016-11.137.125-.385.317-.88.425-1.1.586-1.185.878-1.086 3.233 1.1 2.126 1.972 4.066 3.477 6.842 5.307 2.236 1.474 3.334 2.658 7.65 8.243 4.45 5.758 5.813 7.135 8.3 8.376a25.573 25.573 0 0 0 5.05 1.917l.75.196-19.082.01c-18.127.01-19.08 0-19.03-.17zm-10.887-12.99c-2.742-.307-3.7-.612-4.504-1.43-.938-.955-1.218-1.697-1.338-3.555-.1-1.525-.12-1.56-1.367-2.402-.93-.63-1.34-1.164-1.34-1.748 0-.142.1-.458.225-.704.27-.532.642-.74 1.595-.892a7.9 7.9 0 0 0 1.404-.4c1.03-.412 1.407-.48 3.59-.658 1.78-.144 1.956-.175 2.258-.406.18-.138.328-.296.328-.353 0-.238-1.134-1.277-1.624-1.488-.896-.386-1.61-.238-3.126.647-.92.538-1.54.45-1.91-.27-.25-.48-.116-.904.652-2.067 1.73-2.62 1.89-3.86.803-6.22-.513-1.114-.532-1.684-.087-2.574.512-1.025 2.03-2.378 3.34-2.977 1.1-.505 2.712-.418 3.954.21.836.425 1.047 1.116.506 1.658-.282.282-.326.292-1.246.292-1.073 0-1.41.11-1.627.53-.135.26-.133.306.015.47.09.1.396.28.68.403.56.24 1.04.237 2.838-.023 1.034-.15 1.807-.02 2.782.463.9.447 1.498.98 3.016 2.69 1.343 1.514 1.43 1.71 1.03 2.27-.11.158-.977.95-1.924 1.762-3.202 2.744-4.304 3.995-4.13 4.686.104.42.565.848 1.5 1.4.773.453 1.068.566 1.848.71.683.124 1.01.236 1.23.422.286.24.3.285.262.874-.05.8-.387 1.33-1.107 1.74-.768.44-1.286.51-3.964.542l-2.416.03-.347.335c-.19.185-.347.365-.347.4 0 .035.414.26.92.5l.92.438 1.704.06c1.56.054 1.75.08 2.206.31.34.173.57.378.723.647.33.58.297.966-.117 1.38-.465.465-3.166 1.82-4.134 2.075-.768.202-2.773.324-3.672.223z" fill="#4a4a4a"/></svg>