<svg xmlns="http://www.w3.org/2000/svg" id="Ebene_1" viewBox="0 0 128 115"><style id="style3">.st0{clip-path:url(#SVGID_2_)}.st1{clip-path:url(#SVGID_4_);fill:#303030}.st2{clip-path:url(#SVGID_6_);fill:#303030}.st3{clip-path:url(#SVGID_8_);fill:#303030}.st4{clip-path:url(#SVGID_10_)}.st5{clip-path:url(#SVGID_12_);fill:#303030}.st6{clip-path:url(#SVGID_14_);fill:#000206}.st7{clip-path:url(#SVGID_16_);fill:#303030}</style><path d="M33.875 114.707c.222-.16.84-.79 1.373-1.4.533-.61 1.12-1.23 1.3-1.382.233-.192.53-.69.986-1.65.36-.758.97-1.913 1.357-2.567.796-1.344.963-1.875.807-2.57-.175-.784-.576-1.463-1.712-2.904-1.628-2.064-2.762-4.112-3.812-6.884-.87-2.297-1.47-4.514-2.628-9.7-.754-3.38-.93-3.935-1.358-4.296-.412-.346-1.12-.343-1.937.01-1.545.663-1.786.75-2.243.804-.863.102-1.33-.032-2.217-.637-2.378-1.618-4.46-2.054-8.73-1.827-3.35.178-3.78.09-4.835-.985-.4-.406-.725-.773-.725-.814 0-.14 1.14-.515 1.85-.607.385-.05 1.048-.092 1.473-.094 1.167-.005 1.884-.385 1.987-1.054.076-.497-.113-.746-1.186-1.565-2.14-1.63-4.043-3.838-5.074-5.886-.504-1.002-1.33-3.094-1.46-3.703-.163-.76-.064-1.694.246-2.323.142-.288.536-.862.875-1.274.34-.413.887-1.15 1.217-1.64 1.09-1.622 1.68-2.063 3.423-2.565 1.348-.388 1.605-.516 1.854-.925.406-.665.194-1.223-.766-2.02-1.045-.87-1.45-1.29-1.693-1.765l-.238-.465.812-.22c1.02-.275 1.392-.226 2.78.366.578.247 1.264.474 1.525.505l.475.058-.002-.34c0-.185-.047-1.013-.102-1.838-.137-2.05-.137-7.413 0-9 .397-4.617 1.24-7.87 3.038-11.7l.516-1.1.01-2.05c.006-1.606.045-2.18.178-2.65.497-1.755 1.454-2.912 3.012-3.642.495-.232.96-.452 1.032-.49.073-.037.208-.294.302-.57.428-1.265 1.236-2.116 3.388-3.56 2.363-1.59 3.3-2.714 3.564-4.28l.118-.705 1.798-1.015c6.62-3.736 7.403-4.072 13.25-5.677 5.912-1.623 10.086-1.796 13.933-.574.693.22.765.224 1.77.1 2.222-.273 4.614-.123 6.695.422 3.355.88 6.18 2.445 11.35 6.288 2.704 2.01 3.56 2.632 4.745 3.443 1.002.686 1.05.736 1.21 1.246.22.72.7 1.386 1.325 1.854.722.538 1.11.718 2.824 1.306 4.268 1.463 7.428 3.673 10.017 7.004 2.088 2.684 3.884 6.38 5.928 12.2 1.342 3.82 1.7 5.66 1.703 8.713.002 1.818.016 1.968.235 2.438.32.685.82 1.09 2.05 1.666 1.408.658 2.25 1.237 3.075 2.113.803.853 1.25 1.564 1.62 2.587.243.664.268.865.267 2.133 0 1.273-.026 1.472-.278 2.19-.4 1.138-.95 2.012-1.93 3.076-1.43 1.55-1.46 1.64-1.254 3.694.18 1.807-.1 4.063-.797 6.41-.16.533-.74 2.218-1.295 3.743-.962 2.652-1.02 2.86-1.343 4.782-.365 2.173-.59 2.915-1.128 3.733-.45.683-.987 1.116-2.016 1.624l-.833.41.048.42c.03.27.21.674.504 1.133.574.894 1.976 3.842 3.347 7.035 1.58 3.68 2.528 6.135 6.028 15.6a3026.85 3026.85 0 0 0 1.47 3.975c.04.1-8.347.125-41.726.125H33.47l.405-.293zm29.742-2.247c1.72-.314 3.233-.912 4.528-1.79.328-.223 1.633-1.176 2.9-2.12 5.465-4.062 10.093-7.127 14.805-9.8 2.562-1.456 3.467-2.024 4.528-2.843 2.075-1.604 3.397-3.324 4.003-5.207.377-1.168.447-1.84.38-3.65-.057-1.51-.044-1.74.113-2.047.235-.46.63-.67 1.622-.87 1.012-.203 1.443-.466 1.486-.908.027-.264-.045-.395-.423-.773-.627-.627-2.045-1.532-2.843-1.813-.495-.176-.882-.236-1.52-.238-1.523-.004-2.324-.393-3.105-1.51-.47-.675-.895-.904-1.284-.695-.106.057-.33.103-.5.103-.342 0-.39-.168-.197-.668.155-.4.13-.965-.06-1.33-.087-.17-.49-.67-.895-1.11-.98-1.064-1.083-1.298-1.157-2.642-.07-1.254-.105-1.353-1.118-3.185-.785-1.418-1.126-2.21-1.215-2.815l-.06-.4.873-.005c.98-.006 1.562-.205 2.06-.705.672-.67.88-1.89.435-2.547-.49-.725-1.704-1.193-3.102-1.193-.743 0-.802.016-1.092.307l-.306.306.064 1.22c.036.67.027 1.276-.02 1.348-.13.2-.577.045-.864-.295a2.222 2.222 0 0 1-.36-.715c-.162-.593-.138-1.86.046-2.494.374-1.287 1.573-2.565 3.132-3.338 1.238-.615 1.656-.93 2.075-1.563.55-.83.68-1.532.694-3.725.01-1.76-.007-1.94-.218-2.465-.527-1.303-1.735-2.78-3.433-4.194-1.235-1.027-1.852-1.734-1.942-2.22-.04-.223.023-.532.214-1.02.237-.605.274-.842.273-1.75 0-.913-.057-1.265-.43-2.7-.395-1.51-.438-1.794-.503-3.35-.068-1.617-.088-1.745-.422-2.624-.867-2.282-2.87-4.746-5.01-6.163-1.07-.71-1.903-1.05-2.85-1.162-4.143-.494-13.93-.59-16.32-.16a11.797 11.797 0 0 0-5.1 2.216c-1.74 1.295-2.697 1.78-4.537 2.31-1.394.4-3.173 1.09-4.616 1.79-4.572 2.22-8.1 5.628-10.15 9.808-1.483 3.016-2.268 6.655-2.182 10.097.032 1.28.057 1.435.312 1.955.665 1.354 1.543 1.568 7.313 1.786 3.423.13 4.014.257 5.36 1.154.836.557 1.563 1.307 3.243 3.346 1.597 1.938 1.776 2.3 1.78 3.6 0 .467-.138 1.75-.307 2.85a69.75 69.75 0 0 0-.8 11.603l.034 2.102.326.66c.536 1.09 1.367 1.58 2.674 1.58.647.002.963-.057 1.65-.308 2.054-.75 2.246-.803 3.09-.856 1.39-.086 3.41.414 4 .99.52.51.41 1.37-.256 2-.624.59-1.5.65-2.4.164-1.412-.765-1.228-.72-2.822-.695-1.588.023-1.855.1-1.973.567-.038.15.018.504.136.865l.2.612-.513.497c-.696.676-1.807 1.392-2.522 1.626-.445.146-.873.194-1.74.194-1.108 0-1.175-.012-1.827-.34-1.338-.67-2.517-2.29-2.773-3.808-.174-1.036-.028-1.724.6-2.81 1.18-2.043 1.453-3.068 1.805-6.742.323-3.368.542-4.462 1.19-5.962.45-1.04.56-1.516.464-2.008-.108-.543-.298-.705-.925-.79-.435-.06-.724-.184-1.236-.534-.99-.675-1.178-.625-1.88.5-.387.62-.92.944-1.55.944-.25 0-.974-.113-1.61-.25-1.18-.255-1.726-.304-1.917-.173-.236.16-.233.496.014 1.708.295 1.44.28 1.837-.094 2.63-.344.724-.645.872-1.444.704-.842-.177-1.526-.656-2.762-1.933-1.275-1.32-1.476-1.42-2.185-1.107-.686.303-.817.678-.74 2.122.095 1.746.67 3.774 1.786 6.298.792 1.79 1.608 3.275 3.922 7.133 1.06 1.77 2.234 3.78 2.607 4.467.856 1.58 1.24 2.11 1.814 2.488 1.03.683 1.998.692 3.33.03 1.103-.545 1.362-.542 2.275.026 2.49 1.55 4.038 1.888 8.43 1.84l2.75-.03 1.65.442c1.464.393 1.774.444 2.75.448.997.005 1.155-.02 1.687-.27.323-.15.623-.274.667-.274.146 0 1.204 1.025 1.35 1.31.218.418.183.862-.088 1.133-.402.402-1.08.478-5.066.56-2.062.045-3.967.128-4.233.187-.79.175-1.4.374-2.13.693a6.61 6.61 0 0 1-1.484.41c-.438.062-.838.152-.888.202-.164.164.036.615.487 1.096.66.708 1.236.98 2.457 1.157 1.974.29 2.617.508 3.3 1.12.5.452.99 1.185.99 1.485 0 .334-.36.584-1.62 1.13-2.32 1.006-3.183 1.138-4.107.63-.616-.34-1.45-.654-3.197-1.206-1.95-.617-3.087-1.25-3.43-1.913-.17-.328-.192-1.06-.043-1.45.056-.148.37-.626.7-1.062.497-.66.597-.86.597-1.19 0-.522-.173-.832-.802-1.44-.285-.275-.87-.995-1.3-1.6-1.084-1.524-1.4-1.85-1.79-1.85-.39 0-.86.232-.954.47-.492 1.248-1.207 3.34-1.36 3.975-.724 3.023.424 5.465 4.943 10.505 1.276 1.423 2.4 2.85 3.123 3.96.72 1.106 1.25 1.605 2.01 1.89.71.265.823.256 1.663-.125.682-.31.773-.325 1.867-.315.993.01 1.334.06 2.5.378l1.35.367 2.15-.043c1.34-.028 2.477-.104 3.017-.202zm7.978-48.84a6.663 6.663 0 0 0-.795-.425c-.537-.223-1.614-.17-2.65.13-1.22.352-1.95.475-2.822.475-1.13 0-1.746-.34-2.295-1.273-.36-.61-.8-.956-1.124-.88-.272.063-.75.542-1.26 1.262-.715 1.008-1.32 1.096-2.705.393-1.894-.96-2.48-1.502-2.604-2.406-.136-1.008.505-3.368 1.268-4.66.188-.32.66-.902 1.05-1.295 1.094-1.108 1.95-1.483 5.218-2.292 3.114-.77 4.14-.95 5.453-.95 1.232 0 2.296.214 3.32.668.44.196 1.066.415 1.39.487.658.147.774.257.736.695l-.026.3-1.1-.023c-3.982-.084-4.062-.082-4.95.157-.467.125-1.547.447-2.4.716-.852.268-2 .624-2.55.79-1.582.478-2.35 1.092-2.35 1.88 0 .56.363.625 2.3.418l1.05-.112 1.25.43c1.072.367 1.396.435 2.276.473.902.037 1.128.01 1.865-.22 1.005-.312 1.16-.317 1.972-.064.836.26 2.106 1.136 3.183 2.196 1.426 1.404 1.475 1.598.575 2.292-1.43 1.103-2.44 1.36-3.275.836zM92.68 77.24c.31-.204.52-.723.52-1.285 0-.356-.06-.52-.287-.773-.252-.282-.346-.32-.782-.313-.953.013-1.444.515-1.418 1.452.02.74.117 1.013.388 1.094.362.108 1.307.002 1.58-.177zm8.224-6.365c.834-.42 1.023-1.417.54-2.858-.1-.303-1.483 1.005-2.226 2.106l-.512.76.372.097c.665.177 1.344.138 1.826-.105zM98.89 64.36c.25-.264.358-.662.463-1.68.065-.628.054-.682-.187-.924-.494-.494-1.406-.255-1.776.465-.324.632-.232 1.747.182 2.205.25.277 1.034.238 1.32-.065zM37.6 61.12c1.83.063 2.082.043 2.31-.187.295-.293.38-1.13.152-1.48-.253-.385-.67-.545-1.837-.707-1.2-.167-1.54-.26-2.27-.63-.365-.182-.716-.264-1.267-.296-.87-.05-1.29.058-1.88.486l-.408.295v.7c0 .862.22 1.453.64 1.715.286.178.445.19 2.06.136a51.582 51.582 0 0 1 2.5-.03zm57.832-17.6c.14-.156.15-.296.07-.996-.11-.965-.256-1.284-.81-1.758-.404-.345-2.64-1.366-2.99-1.366-.29 0-.69.39-.756.734-.08.428.192 1.102.537 1.33.147.098.56.32.92.492.358.173 1.053.636 1.543 1.03.92.74 1.208.842 1.486.534zm-7.573-5.885l.364-.366-.045-.76c-.055-.89-.312-1.477-.803-1.827-.27-.192-.453-.233-1.043-.233-.65 0-.75.028-1.1.31-.315.255-.39.383-.414.72-.075.997 1.313 2.52 2.296 2.52.3 0 .45-.074.743-.365zM41.807 26.842l.242-.26-.23-.185c-.443-.36-.94.093-.563.51.224.248.26.244.55-.065zm3.273-1.317c.813-.58 1.42-1.188 1.42-1.425 0-.23-.276-.297-1.25-.298-1.188-.002-1.777.372-1.914 1.217-.058.353-.046.37.477.67.295.17.55.31.57.31.017 0 .33-.214.698-.475z" id="path3402" fill="#4a4a4a"/></svg>